<mxfile host="app.diagrams.net" modified="2024-03-05T01:59:07.140Z" agent="Mozilla/5.0 (Windows NT 10.0; Win64; x64) AppleWebKit/537.36 (KHTML, like Gecko) Chrome/121.0.0.0 Safari/537.36" version="24.0.1" etag="dLjNFEIOo0CcAOHG2LLW" type="github">
  <diagram name="Page-1" id="udyEqneWHLNUkmUJKPt8">
    <mxGraphModel>
      <root>
        <mxCell id="0" />
        <mxCell id="1" parent="0" />
      </root>
    </mxGraphModel>
  </diagram>
</mxfile>
